mtllib head.mtl
o Model
v -0.218750 -0.187500 0.000000
v -0.218750 -0.187500 0.156250
v -0.078125 -0.187500 0.000000
v -0.031250 -0.187500 0.156250
v -0.015625 -0.187500 0.000000
v 0.000000 -0.187500 0.062500
v 0.000000 -0.187500 0.187500
v 0.031250 -0.187500 0.062500
v 0.062500 -0.187500 0.125000
v -0.093750 -0.156250 -0.062500
v -0.031250 -0.156250 -0.062500
v -0.312500 -0.125000 -0.156250
v -0.312500 -0.125000 0.156250
v -0.218750 -0.125000 0.000000
v -0.218750 -0.125000 0.156250
v -0.156250 -0.125000 -0.156250
v -0.125000 -0.125000 -0.125000
v -0.093750 -0.125000 -0.062500
v -0.078125 -0.125000 0.000000
v -0.062500 -0.125000 -0.125000
v -0.062500 -0.093750 -0.250000
v -0.031250 -0.093750 -0.218750
v 0.000000 -0.093750 -0.187500
v 0.031250 -0.093750 -0.156250
v 0.125000 -0.062500 -0.343750
v -0.125000 -0.031250 0.156250
v -0.093750 -0.031250 0.187500
v -0.062500 -0.031250 0.187500
v -0.031250 -0.031250 0.156250
v -0.125000 0.031250 0.156250
v -0.093750 0.031250 0.187500
v -0.062500 0.031250 0.187500
v -0.031250 0.031250 0.156250
v 0.125000 0.062500 -0.343750
v -0.062500 0.093750 -0.250000
v -0.031250 0.093750 -0.218750
v 0.000000 0.093750 -0.187500
v 0.031250 0.093750 -0.156250
v -0.312500 0.125000 -0.156250
v -0.312500 0.125000 0.156250
v -0.218750 0.125000 0.000000
v -0.218750 0.125000 0.156250
v -0.156250 0.125000 -0.156250
v -0.125000 0.125000 -0.125000
v -0.093750 0.125000 -0.062500
v -0.078125 0.125000 0.000000
v -0.062500 0.125000 -0.125000
v -0.093750 0.156250 -0.062500
v -0.031250 0.156250 -0.062500
v -0.218750 0.187500 0.000000
v -0.218750 0.187500 0.156250
v -0.078125 0.187500 0.000000
v -0.031250 0.187500 0.156250
v -0.015625 0.187500 0.000000
v 0.000000 0.187500 0.062500
v 0.000000 0.187500 0.187500
v 0.031250 0.187500 0.062500
v 0.062500 0.187500 0.125000
vn 0.0000 -1.0000 0.0000
vn 0.1098 -0.9879 -0.1098
vn 0.1622 -0.9733 -0.1622
vn 0.0000 -0.9487 -0.3162
vn 0.2357 -0.9428 -0.2357
vn 0.0000 -0.8944 -0.4472
vn -1.0000 0.0000 0.0000
vn 0.0000 0.0000 -1.0000
vn 0.0000 0.0000 1.0000
vn -0.9701 0.0000 0.2425
vn 0.9701 0.0000 -0.2425
vn -0.8944 0.0000 0.4472
vn -0.4472 0.0000 -0.8944
vn 0.8944 0.0000 -0.4472
vn 0.8944 0.0000 0.4472
vn -0.7071 0.0000 -0.7071
vn -0.7071 0.0000 0.7071
vn 0.7071 0.0000 0.7071
vn 0.0000 0.8944 -0.4472
vn 0.2357 0.9428 -0.2357
vn 0.0000 0.9487 -0.3162
vn 0.1622 0.9733 -0.1622
vn 0.1098 0.9879 -0.1098
vn 0.0000 1.0000 0.0000
vt 0.000000 0.031250
vt 0.000000 0.218750
vt 0.000000 0.250000
vt 0.000000 0.625000
vt 0.000000 0.687500
vt 0.000000 0.937500
vt 0.062500 0.250000
vt 0.062500 0.625000
vt 0.093750 0.625000
vt 0.093750 0.687500
vt 0.093750 0.937500
vt 0.093750 1.000000
vt 0.125000 0.250000
vt 0.125000 0.625000
vt 0.156250 0.250000
vt 0.156250 0.625000
vt 0.187500 0.062500
vt 0.187500 0.187500
vt 0.187500 0.781250
vt 0.187500 0.843750
vt 0.218750 0.250000
vt 0.218750 0.625000
vt 0.218750 0.781250
vt 0.218750 0.843750
vt 0.250000 0.781250
vt 0.250000 0.843750
vt 0.281250 0.281250
vt 0.281250 0.593750
vt 0.281250 0.625000
vt 0.281250 0.781250
vt 0.281250 0.843750
vt 0.281250 1.000000
vt 0.312500 0.625000
vt 0.312500 0.750000
vt 0.312500 0.875000
vt 0.312500 1.000000
vt 0.343750 0.312500
vt 0.343750 0.562500
vt 0.406250 0.343750
vt 0.406250 0.531250
vt 0.437500 0.062500
vt 0.437500 0.343750
vt 0.437500 0.375000
vt 0.437500 0.531250
vt 0.500000 0.718750
vt 0.500000 0.906250
vt 0.515625 0.625000
vt 0.515625 0.687500
vt 0.515625 0.937500
vt 0.515625 1.000000
vt 0.531250 0.062500
vt 0.531250 0.218750
vt 0.593750 0.375000
vt 0.593750 0.687500
vt 0.593750 0.937500
vt 0.625000 0.062500
vt 0.625000 0.343750
vt 0.656250 0.031250
vt 0.656250 0.281250
vt 0.656250 0.625000
vt 0.656250 0.687500
vt 0.656250 0.937500
vt 0.656250 1.000000
vt 0.671875 0.218750
vt 0.687500 0.031250
vt 0.687500 0.343750
vt 0.687500 0.468750
vt 0.718750 0.062500
vt 0.718750 0.281250
vt 0.718750 0.437500
vt 0.718750 0.625000
vt 0.734375 0.218750
vt 0.750000 0.031250
vt 0.750000 0.156250
vt 0.750000 0.406250
vt 0.750000 0.687500
vt 0.750000 0.937500
vt 0.750000 1.000000
vt 0.781250 0.156250
vt 0.781250 0.375000
vt 0.781250 0.593750
vt 0.781250 0.625000
vt 0.781250 0.656250
vt 0.812500 0.093750
vt 0.843750 0.562500
vt 0.843750 0.625000
vt 0.843750 0.687500
vt 0.875000 0.562500
vt 1.000000 0.562500
vt 1.000000 0.625000
vt 1.000000 0.687500
vt 1.000000 1.000000
usemtl Head
f 1/52/1 5/72/1 4/68/1 2/51/1
f 4/68/1 5/72/1 6/74/1 7/73/1
f 6/74/1 8/79/1 9/84/1 7/73/1
f 3/64/6 10/59/6 11/69/6 5/72/6
f 1/85/7 2/89/7 15/90/7 14/86/7
f 1/60/8 14/61/8 19/48/8 3/47/8
f 3/85/10 19/86/10 18/82/10 10/81/10
f 10/59/6 17/57/6 20/66/6 11/69/6
f 10/81/12 18/82/12 17/71/12
f 12/43/1 14/52/1 15/51/1 13/41/1
f 12/43/1 16/53/1 17/57/1 14/52/1
f 14/52/1 17/57/1 18/59/1 19/64/1
f 17/57/4 22/70/4 20/66/4
f 2/9/9 4/29/9 29/30/9 26/19/9
f 16/53/3 21/67/3 22/70/3 17/57/3
f 20/66/5 22/70/5 23/75/5
f 21/67/2 25/88/2 24/80/2
f 26/56/1 29/68/1 28/65/1 27/58/1
f 12/91/7 13/92/7 40/78/7 39/76/7
f 13/5/9 15/10/9 42/11/9 40/6/9
f 12/76/8 39/77/8 43/55/8 16/54/8
f 2/9/9 26/19/9 30/20/9 51/12/9
f 16/54/16 43/55/16 35/46/16 21/45/16
f 26/19/17 27/23/17 31/24/17 30/20/17
f 27/23/9 28/25/9 32/26/9 31/24/9
f 11/27/14 20/37/14 47/38/14 49/28/14
f 28/25/18 29/30/18 33/31/18 32/26/18
f 20/37/18 23/39/18 37/40/18 47/38/18
f 5/21/11 11/27/11 49/28/11 54/22/11
f 4/29/17 7/33/17 56/36/17 53/32/17
f 5/21/11 54/22/11 55/16/11 6/15/11
f 23/39/17 24/42/17 38/44/17 37/40/17
f 6/15/8 55/16/8 57/14/8 8/13/8
f 21/45/13 35/46/13 34/35/13 25/34/13
f 7/3/18 9/7/18 58/8/18 56/4/18
f 8/13/14 57/14/14 58/8/14 9/7/14
f 24/1/15 25/17/15 34/18/15 38/2/15
f 30/56/24 31/58/24 32/65/24 33/68/24
f 34/88/23 35/67/23 38/80/23
f 36/70/20 47/66/20 37/75/20
f 30/20/9 33/31/9 53/32/9 51/12/9
f 35/67/22 43/53/22 44/57/22 36/70/22
f 36/70/21 44/57/21 47/66/21
f 39/43/24 40/41/24 42/51/24 41/52/24
f 39/43/24 41/52/24 44/57/24 43/53/24
f 41/52/24 46/64/24 45/59/24 44/57/24
f 44/71/12 45/82/12 48/83/12
f 44/57/19 48/59/19 49/69/19 47/66/19
f 45/82/10 46/86/10 52/87/10 48/83/10
f 41/86/7 42/90/7 51/91/7 50/87/7
f 41/62/8 50/63/8 52/50/8 46/49/8
f 48/59/19 52/64/19 54/72/19 49/69/19
f 50/52/24 51/51/24 53/68/24 54/72/24
f 53/68/24 56/73/24 55/74/24 54/72/24
f 55/74/24 56/73/24 58/84/24 57/79/24
