mtllib scharfenberg.mtl
o Model
v -0.187500 -0.156250 -0.250000
v -0.187500 -0.156250 0.250000
v 0.000000 -0.156250 -0.250000
v 0.000000 -0.156250 0.250000
v -0.312500 -0.125000 -0.187500
v -0.312500 -0.125000 0.187500
v -0.062500 -0.093750 -0.125000
v -0.062500 -0.093750 -0.062500
v 0.000000 -0.093750 -0.125000
v 0.000000 -0.093750 -0.062500
v 0.000000 -0.093750 0.062500
v 0.000000 -0.093750 0.125000
v 0.062500 -0.093750 0.062500
v 0.062500 -0.093750 0.125000
v -0.125000 -0.031250 -0.125000
v -0.125000 -0.031250 0.000000
v -0.062500 -0.031250 -0.187500
v 0.000000 -0.031250 -0.187500
v 0.000000 -0.031250 0.000000
v 0.000000 -0.031250 0.187500
v 0.062500 -0.031250 0.000000
v 0.062500 -0.031250 0.187500
v 0.125000 -0.031250 0.062500
v 0.125000 -0.031250 0.125000
v -0.125000 -0.015625 -0.062500
v -0.125000 -0.015625 0.000000
v -0.093750 -0.015625 -0.093750
v -0.093750 -0.015625 -0.062500
v -0.062500 -0.015625 -0.093750
v 0.000000 -0.015625 -0.031250
v 0.000000 -0.015625 0.000000
v 0.000000 -0.015625 0.093750
v 0.062500 -0.015625 0.000000
v 0.125000 -0.015625 0.062500
v 0.125000 -0.015625 0.093750
v -0.125000 0.015625 -0.062500
v -0.125000 0.015625 0.000000
v -0.093750 0.015625 -0.093750
v -0.093750 0.015625 -0.062500
v -0.062500 0.015625 -0.093750
v 0.000000 0.015625 -0.031250
v 0.000000 0.015625 0.000000
v 0.000000 0.015625 0.093750
v 0.062500 0.015625 0.000000
v 0.125000 0.015625 0.062500
v 0.125000 0.015625 0.093750
v -0.125000 0.031250 -0.125000
v -0.125000 0.031250 0.000000
v -0.062500 0.031250 -0.187500
v 0.000000 0.031250 -0.187500
v 0.000000 0.031250 0.000000
v 0.000000 0.031250 0.187500
v 0.062500 0.031250 0.000000
v 0.062500 0.031250 0.187500
v 0.125000 0.031250 0.062500
v 0.125000 0.031250 0.125000
v -0.062500 0.093750 -0.125000
v -0.062500 0.093750 -0.062500
v 0.000000 0.093750 -0.125000
v 0.000000 0.093750 -0.062500
v 0.000000 0.093750 0.062500
v 0.000000 0.093750 0.125000
v 0.062500 0.093750 0.062500
v 0.062500 0.093750 0.125000
v -0.312500 0.125000 -0.187500
v -0.312500 0.125000 0.187500
v -0.187500 0.156250 -0.250000
v -0.187500 0.156250 0.250000
v 0.000000 0.156250 -0.250000
v 0.000000 0.156250 0.250000
vn 0.0000 -1.0000 0.0000
vn -0.2425 -0.9701 0.0000
vn 0.0000 -0.9239 -0.3827
vn 0.0000 -0.9239 0.3827
vn 0.3002 -0.9054 -0.3002
vn 0.3416 -0.8756 -0.3416
vn 0.3416 -0.8756 0.3416
vn 0.6507 -0.3914 -0.6507
vn 0.0000 -0.3827 -0.9239
vn 0.0000 -0.3827 0.9239
vn 0.3416 -0.3416 -0.8756
vn 0.3416 -0.3416 0.8756
vn 0.8756 -0.3416 -0.3416
vn 0.8756 -0.3416 0.3416
vn -1.0000 0.0000 0.0000
vn 0.0000 0.0000 -1.0000
vn 0.0000 0.0000 1.0000
vn 1.0000 0.0000 0.0000
vn 0.9239 0.0000 -0.3827
vn -0.4472 0.0000 -0.8944
vn -0.4472 0.0000 0.8944
vn 0.7071 0.0000 -0.7071
vn 0.3416 0.3416 -0.8756
vn 0.3416 0.3416 0.8756
vn 0.8756 0.3416 -0.3416
vn 0.8756 0.3416 0.3416
vn 0.0000 0.3827 -0.9239
vn 0.0000 0.3827 0.9239
vn 0.6507 0.3914 -0.6507
vn 0.3416 0.8756 -0.3416
vn 0.3416 0.8756 0.3416
vn 0.3002 0.9054 -0.3002
vn 0.0000 0.9239 -0.3827
vn 0.0000 0.9239 0.3827
vn -0.2425 0.9701 0.0000
vn 0.0000 1.0000 0.0000
vt 0.000000 0.312500
vt 0.000000 0.328125
vt 0.000000 0.359375
vt 0.000000 0.375000
vt 0.000000 0.500000
vt 0.000000 1.000000
vt 0.062500 0.187500
vt 0.062500 0.250000
vt 0.062500 0.312500
vt 0.062500 0.328125
vt 0.062500 0.359375
vt 0.062500 0.375000
vt 0.062500 0.437500
vt 0.062500 0.500000
vt 0.093750 0.218750
vt 0.093750 0.250000
vt 0.125000 0.187500
vt 0.125000 0.250000
vt 0.125000 0.312500
vt 0.125000 0.328125
vt 0.125000 0.359375
vt 0.125000 0.375000
vt 0.125000 0.437500
vt 0.125000 0.500000
vt 0.156250 0.218750
vt 0.156250 0.250000
vt 0.156250 0.312500
vt 0.156250 0.328125
vt 0.156250 0.359375
vt 0.156250 0.375000
vt 0.156250 0.437500
vt 0.187500 0.187500
vt 0.187500 0.218750
vt 0.187500 0.250000
vt 0.187500 0.312500
vt 0.187500 0.328125
vt 0.187500 0.359375
vt 0.187500 0.375000
vt 0.187500 0.437500
vt 0.187500 0.500000
vt 0.187500 1.000000
vt 0.218750 0.312500
vt 0.218750 0.343750
vt 0.218750 0.375000
vt 0.250000 0.187500
vt 0.250000 0.218750
vt 0.250000 0.250000
vt 0.250000 0.312500
vt 0.250000 0.328125
vt 0.250000 0.343750
vt 0.250000 0.359375
vt 0.250000 0.375000
vt 0.250000 0.437500
vt 0.250000 0.500000
vt 0.281250 0.312500
vt 0.281250 0.328125
vt 0.281250 0.343750
vt 0.281250 0.359375
vt 0.281250 0.375000
vt 0.312500 0.312500
vt 0.312500 0.328125
vt 0.312500 0.359375
vt 0.312500 0.375000
vt 0.312500 0.562500
vt 0.312500 0.687500
vt 0.312500 0.937500
vt 0.312500 1.000000
vt 0.375000 0.500000
vt 0.375000 0.562500
vt 0.437500 0.437500
vt 0.437500 0.625000
vt 0.500000 0.437500
vt 0.500000 0.625000
vt 0.500000 0.687500
vt 0.500000 1.000000
vt 0.562500 0.500000
vt 0.562500 0.562500
vt 0.625000 0.437500
vt 0.625000 0.625000
vt 0.625000 0.718750
vt 0.625000 0.750000
vt 0.625000 0.968750
vt 0.625000 1.000000
vt 0.687500 0.437500
vt 0.687500 0.625000
vt 0.750000 0.500000
vt 0.750000 0.562500
vt 0.812500 0.375000
vt 0.812500 0.687500
vt 1.000000 0.750000
vt 1.000000 1.000000
usemtl Material
f 1/41/1 3/6/1 4/5/1 2/40/1
f 1/41/2 2/40/2 6/64/2 5/66/2
f 3/88/18 9/84/18 12/70/18 4/63/18
f 7/34/31 8/18/32 10/17/33 9/32/34
f 3/88/18 18/86/18 9/84/18
f 4/63/18 12/70/18 20/68/18
f 11/32/3 13/34/6 14/18/7 12/17/4
f 10/78/18 19/76/18 11/72/18
f 7/34/31 15/35/26 16/9/29 8/18/32
f 8/18/32 16/9/29 19/7/27 10/17/33
f 7/34/31 9/32/34 18/45/28 17/47/24
f 11/32/3 19/45/9 21/47/11 13/34/6
f 12/17/4 14/18/7 22/8/12 20/7/10
f 13/34/6 23/35/13 24/19/14 14/18/7
f 7/34/31 17/48/24 15/35/26
f 13/34/6 21/48/11 23/35/13
f 14/18/7 24/19/14 22/9/12
f 15/35/26 25/20/18 26/10/18 16/9/29
f 16/19/29 26/20/16 31/2/16 19/1/27
f 19/60/9 31/61/16 33/49/16 21/48/11
f 21/48/11 33/49/22 34/36/19 23/35/13
f 23/35/13 34/36/19 35/28/18 24/19/14
f 25/42/1 28/43/1 31/31/1 26/27/1
f 27/50/1 29/52/1 28/43/1
f 28/43/1 29/52/1 30/39/1 31/31/1
f 31/52/36 32/30/36 34/34/36 33/48/36
f 32/30/36 35/26/36 34/34/36
f 5/81/15 6/90/15 66/91/15 65/83/15
f 1/74/20 5/80/20 65/82/20 67/75/20
f 2/75/21 68/74/21 66/80/21 6/82/21
f 15/35/26 47/38/14 36/21/18 25/20/18
f 25/59/16 36/52/16 39/50/16 28/57/16
f 1/74/16 67/75/16 69/67/16 3/65/16
f 15/35/26 17/48/24 49/52/12 47/38/14
f 27/56/15 28/58/15 39/51/15 38/49/15
f 2/75/17 4/67/17 70/65/17 68/74/17
f 27/57/16 38/50/16 40/48/16 29/55/16
f 17/48/24 18/60/28 50/63/10 49/52/12
f 29/46/22 40/47/22 41/34/19 30/33/19
f 3/88/18 69/89/18 50/87/18 18/86/18
f 30/33/19 41/34/19 42/26/18 31/25/18
f 31/25/18 42/26/18 43/16/18 32/15/18
f 4/63/18 20/68/18 52/69/18 70/65/18
f 20/1/10 22/9/12 54/12/24 52/4/28
f 32/61/16 43/62/16 46/37/16 35/36/16
f 22/9/12 24/19/14 56/22/26 54/12/24
f 24/19/14 35/28/18 46/29/18 56/22/26
f 36/44/36 37/30/36 42/26/36 39/43/36
f 38/50/36 39/43/36 40/48/36
f 39/43/36 42/26/36 41/34/36 40/48/36
f 42/48/1 44/52/1 45/39/1 43/27/1
f 43/27/1 45/39/1 46/31/1
f 36/21/18 47/38/14 48/12/8 37/11/18
f 37/21/16 48/22/8 51/4/9 42/3/16
f 42/62/16 51/63/27 53/52/23 44/51/16
f 44/51/22 53/52/23 55/38/25 45/37/19
f 45/37/19 55/38/25 56/22/26 46/29/18
f 47/38/14 49/52/12 57/39/7
f 53/52/23 63/39/30 55/38/25
f 54/12/24 56/22/26 64/23/31
f 47/38/14 57/39/7 58/23/5 48/12/8
f 48/12/8 58/23/5 60/24/3 51/14/9
f 49/53/12 50/54/10 59/40/4 57/39/7
f 51/54/27 61/40/33 63/39/30 53/53/23
f 52/14/28 54/13/24 64/23/31 62/24/34
f 55/38/25 63/39/30 64/23/31 56/22/26
f 51/77/18 60/79/18 61/73/18
f 57/39/7 59/40/4 60/24/3 58/23/5
f 50/87/18 69/89/18 59/85/18
f 52/69/18 62/71/18 70/65/18
f 61/40/33 62/24/34 64/23/31 63/39/30
f 59/85/18 69/89/18 70/65/18 62/71/18
f 65/64/35 66/66/35 68/41/35 67/40/35
f 67/40/36 68/41/36 70/6/36 69/5/36
