mtllib shibata.mtl
o Model
v -0.312500 -0.125000 -0.156250
v -0.312500 -0.125000 0.156250
v -0.125000 -0.125000 -0.187500
v -0.125000 -0.125000 0.187500
v 0.000000 -0.125000 -0.187500
v 0.000000 -0.125000 0.187500
v -0.250000 -0.062500 -0.062500
v -0.250000 -0.062500 0.000000
v -0.125000 -0.062500 -0.125000
v 0.000000 -0.062500 -0.125000
v 0.000000 -0.062500 0.000000
v 0.000000 -0.062500 0.125000
v 0.125000 -0.062500 0.000000
v 0.125000 -0.062500 0.125000
v -0.062500 -0.031250 0.000000
v -0.031250 -0.031250 -0.031250
v 0.000000 -0.031250 0.000000
v 0.031250 -0.031250 0.031250
v 0.062500 -0.031250 0.000000
v 0.250000 0.000000 0.062500
v -0.062500 0.031250 0.000000
v -0.031250 0.031250 -0.031250
v 0.000000 0.031250 0.000000
v 0.031250 0.031250 0.031250
v 0.062500 0.031250 0.000000
v -0.250000 0.062500 -0.062500
v -0.250000 0.062500 0.000000
v -0.125000 0.062500 -0.125000
v 0.000000 0.062500 -0.125000
v 0.000000 0.062500 0.000000
v 0.000000 0.062500 0.125000
v 0.125000 0.062500 0.000000
v 0.125000 0.062500 0.125000
v -0.312500 0.125000 -0.156250
v -0.312500 0.125000 0.156250
v -0.125000 0.125000 -0.187500
v -0.125000 0.125000 0.187500
v 0.000000 0.125000 -0.187500
v 0.000000 0.125000 0.187500
vn 0.0000 -1.0000 0.0000
vn 0.4472 -0.8944 0.0000
vn -1.0000 0.0000 0.0000
vn 0.0000 0.0000 -1.0000
vn 0.0000 0.0000 1.0000
vn 1.0000 0.0000 0.0000
vn -0.1644 0.0000 -0.9864
vn -0.1644 0.0000 0.9864
vn 0.4472 0.0000 -0.8944
vn 0.4472 0.0000 0.8944
vn -0.7071 0.0000 -0.7071
vn 0.7071 0.0000 -0.7071
vn 0.4472 0.8944 0.0000
vn 0.0000 1.0000 0.0000
vt 0.000000 0.187500
vt 0.000000 0.250000
vt 0.000000 0.312500
vt 0.000000 0.375000
vt 0.000000 0.625000
vt 0.000000 1.000000
vt 0.062500 0.187500
vt 0.062500 0.250000
vt 0.062500 0.437500
vt 0.062500 0.562500
vt 0.125000 0.187500
vt 0.125000 0.250000
vt 0.125000 0.375000
vt 0.125000 0.625000
vt 0.125000 1.000000
vt 0.187500 0.187500
vt 0.187500 0.250000
vt 0.187500 0.281250
vt 0.187500 0.343750
vt 0.218750 0.281250
vt 0.218750 0.312500
vt 0.218750 0.343750
vt 0.250000 0.250000
vt 0.250000 0.281250
vt 0.250000 0.343750
vt 0.250000 0.375000
vt 0.312500 0.281250
vt 0.312500 0.343750
vt 0.312500 0.437500
vt 0.312500 0.562500
vt 0.312500 0.656250
vt 0.312500 0.750000
vt 0.312500 0.968750
vt 0.312500 1.000000
vt 0.375000 0.250000
vt 0.375000 0.375000
vt 0.375000 0.625000
vt 0.437500 0.750000
vt 0.437500 1.000000
vt 0.500000 0.250000
vt 0.500000 0.312500
vt 0.500000 0.375000
vt 0.562500 0.250000
vt 0.562500 0.375000
vt 0.625000 0.750000
vt 0.625000 1.000000
vt 0.875000 0.750000
vt 0.875000 1.000000
usemtl Material
f 1/33/1 3/15/1 4/14/1 2/31/1
f 3/15/1 5/6/1 6/5/1 4/14/1
f 5/36/6 10/29/6 12/9/6 6/4/6
f 7/41/14 8/42/14 11/26/14 9/35/14
f 9/35/14 11/26/14 10/23/14
f 11/26/1 13/13/1 14/12/1 12/23/1
f 8/40/4 15/27/4 19/18/4 13/12/4
f 13/13/2 20/3/2 14/12/2
f 15/12/1 16/11/1 17/7/1
f 17/24/14 18/21/14 19/18/14
f 1/45/3 2/47/3 35/48/3 34/46/3
f 7/42/6 26/40/6 27/43/6 8/44/6
f 1/45/7 34/46/7 36/39/7 3/38/7
f 2/46/8 4/39/8 37/38/8 35/45/8
f 7/42/10 9/36/10 28/35/10 26/40/10
f 8/40/4 27/42/4 21/28/4 15/27/4
f 3/38/4 36/39/4 38/34/4 5/32/4
f 9/36/5 10/26/5 29/23/5 28/35/5
f 4/39/5 6/34/5 39/32/5 37/38/5
f 15/16/11 21/17/11 22/12/11 16/11/11
f 5/36/6 38/37/6 29/30/6 10/29/6
f 16/11/12 22/12/12 24/2/12 18/1/12
f 6/4/6 12/9/6 31/10/6 39/5/6
f 18/20/11 24/22/11 25/19/11 19/18/11
f 12/26/5 14/13/5 33/12/5 31/23/5
f 13/12/4 19/18/4 25/19/4 32/13/4
f 13/12/9 32/13/9 20/3/9
f 14/13/10 20/3/10 33/12/10
f 21/11/14 23/8/14 22/12/14
f 23/25/1 25/19/1 24/21/1
f 20/3/13 32/12/13 33/13/13
f 21/28/4 27/42/4 32/13/4 25/19/4
f 26/41/1 28/36/1 30/23/1 27/40/1
f 28/36/1 29/26/1 30/23/1
f 30/23/14 31/26/14 33/13/14 32/12/14
f 29/30/6 38/37/6 39/5/6 31/10/6
f 34/31/14 35/33/14 37/15/14 36/14/14
f 36/14/14 37/15/14 39/6/14 38/5/14
